<svg width="38" height="38" viewBox="0 0 38 38" fill="none" xmlns="http://www.w3.org/2000/svg">
<circle cx="18.75" cy="18.75" r="18.75" fill="#2FA572"/>
<path d="M18.75 0C8.4375 0 0 8.4375 0 18.75C0 29.0625 8.4375 37.5 18.75 37.5C29.0625 37.5 37.5 29.0625 37.5 18.75C37.5 8.4375 29.0625 0 18.75 0ZM18.75 33.75C10.4813 33.75 3.75 27.0187 3.75 18.75C3.75 10.4813 10.4813 3.75 18.75 3.75C27.0187 3.75 33.75 10.4813 33.75 18.75C33.75 27.0187 27.0187 33.75 18.75 33.75ZM27.3563 10.4625L15 22.8188L10.1437 17.9813L7.5 20.625L15 28.125L30 13.125L27.3563 10.4625Z" fill="black"/>
<circle cx="19" cy="19" r="15" fill="#2FA572"/>
<path d="M20.2185 10.4387C19.9372 10.1578 19.556 10 19.1585 10C18.761 10 18.3797 10.1578 18.0985 10.4387L12.4395 16.0947C12.1581 16.3761 12 16.7577 12 17.1557C12 17.5536 12.1581 17.9353 12.4395 18.2167C12.7209 18.4981 13.1025 18.6562 13.5005 18.6562C13.8984 18.6562 14.2801 18.4981 14.5615 18.2167L17.6585 15.1207V26.6557C17.6585 27.0535 17.8165 27.435 18.0978 27.7163C18.3791 27.9976 18.7607 28.1557 19.1585 28.1557C19.5563 28.1557 19.9378 27.9976 20.2191 27.7163C20.5004 27.435 20.6585 27.0535 20.6585 26.6557V15.1207L23.7545 18.2167C23.8938 18.356 24.0592 18.4665 24.2413 18.5419C24.4233 18.6173 24.6184 18.6562 24.8155 18.6562C25.0125 18.6562 25.2076 18.6173 25.3897 18.5419C25.5717 18.4665 25.7371 18.356 25.8765 18.2167C26.0158 18.0773 26.1263 17.9119 26.2017 17.7299C26.2771 17.5478 26.316 17.3527 26.316 17.1557C26.316 16.9586 26.2771 16.7635 26.2017 16.5815C26.1263 16.3994 26.0158 16.234 25.8765 16.0947L20.2185 10.4387Z" fill="black"/>
<path d="M20.2185 10.4387C19.9372 10.1578 19.556 10 19.1585 10C18.761 10 18.3797 10.1578 18.0985 10.4387L12.4395 16.0947C12.1581 16.3761 12 16.7577 12 17.1557C12 17.5536 12.1581 17.9353 12.4395 18.2167C12.7209 18.4981 13.1025 18.6562 13.5005 18.6562C13.8984 18.6562 14.2801 18.4981 14.5615 18.2167L17.6585 15.1207V26.6557C17.6585 27.0535 17.8165 27.435 18.0978 27.7163C18.3791 27.9976 18.7607 28.1557 19.1585 28.1557C19.5563 28.1557 19.9378 27.9976 20.2191 27.7163C20.5004 27.435 20.6585 27.0535 20.6585 26.6557V15.1207L23.7545 18.2167C23.8938 18.356 24.0592 18.4665 24.2413 18.5419C24.4233 18.6173 24.6184 18.6562 24.8155 18.6562C25.0125 18.6562 25.2076 18.6173 25.3897 18.5419C25.5717 18.4665 25.7371 18.356 25.8765 18.2167C26.0158 18.0773 26.1263 17.9119 26.2017 17.7299C26.2771 17.5478 26.316 17.3527 26.316 17.1557C26.316 16.9586 26.2771 16.7635 26.2017 16.5815C26.1263 16.3994 26.0158 16.234 25.8765 16.0947L20.2185 10.4387Z" stroke="black"/>
</svg>
