<svg width="38" height="38" viewBox="0 0 38 38" fill="none" xmlns="http://www.w3.org/2000/svg">
<circle cx="19" cy="19" r="18.75" fill="#2FA572"/>
<path d="M19 0.25C8.6875 0.25 0.25 8.6875 0.25 19C0.25 29.3125 8.6875 37.75 19 37.75C29.3125 37.75 37.75 29.3125 37.75 19C37.75 8.6875 29.3125 0.25 19 0.25ZM19 34C10.7313 34 4 27.2687 4 19C4 10.7313 10.7313 4 19 4C27.2687 4 34 10.7313 34 19C34 27.2687 27.2687 34 19 34ZM27.6063 10.7125L15.25 23.0688L10.3937 18.2313L7.75 20.875L15.25 28.375L30.25 13.375L27.6063 10.7125Z" fill="black"/>
</svg>
